{
    "asset" : {
        "generator" : "Khronos glTF Blender I/O v1.4.40",
        "version" : "2.0"
    },
    "scene" : 0,
    "scenes" : [
        {
            "name" : "Scene",
            "nodes" : [
                0
            ]
        }
    ],
    "nodes" : [
        {
            "mesh" : 0,
            "name" : "Bank"
        }
    ],
    "materials" : [
        {
            "doubleSided" : true,
            "name" : "Bank",
            "pbrMetallicRoughness" : {}
        }
    ],
    "meshes" : [
        {
            "name" : "Cube.012",
            "primitives" : [
                {
                    "attributes" : {
                        "POSITION" : 0,
                        "NORMAL" : 1,
                        "TEXCOORD_0" : 2
                    },
                    "indices" : 3,
                    "material" : 0
                }
            ]
        }
    ],
    "accessors" : [
        {
            "bufferView" : 0,
            "componentType" : 5126,
            "count" : 24063,
            "max" : [
                2.004241466522217,
                2.9277842044830322,
                1.904833197593689
            ],
            "min" : [
                -2.004241943359375,
                0.004859724547713995,
                -2.3389668464660645
            ],
            "type" : "VEC3"
        },
        {
            "bufferView" : 1,
            "componentType" : 5126,
            "count" : 24063,
            "type" : "VEC3"
        },
        {
            "bufferView" : 2,
            "componentType" : 5126,
            "count" : 24063,
            "type" : "VEC2"
        },
        {
            "bufferView" : 3,
            "componentType" : 5123,
            "count" : 37746,
            "type" : "SCALAR"
        }
    ],
    "bufferViews" : [
        {
            "buffer" : 0,
            "byteLength" : 288756,
            "byteOffset" : 0
        },
        {
            "buffer" : 0,
            "byteLength" : 288756,
            "byteOffset" : 288756
        },
        {
            "buffer" : 0,
            "byteLength" : 192504,
            "byteOffset" : 577512
        },
        {
            "buffer" : 0,
            "byteLength" : 75492,
            "byteOffset" : 770016
        }
    ],
    "buffers" : [
        {
            "byteLength" : 845508,
            "uri" : "data:application/octet-stream;base64,"
        }
    ]
}
