{
    "asset" : {
        "generator" : "Khronos glTF Blender I/O v1.4.40",
        "version" : "2.0"
    },
    "scene" : 0,
    "scenes" : [
        {
            "name" : "Scene",
            "nodes" : [
                0
            ]
        }
    ],
    "nodes" : [
        {
            "mesh" : 0,
            "name" : "Hospital"
        }
    ],
    "materials" : [
        {
            "doubleSided" : true,
            "name" : "Hospital",
            "pbrMetallicRoughness" : {}
        }
    ],
    "meshes" : [
        {
            "name" : "Cube.023",
            "primitives" : [
                {
                    "attributes" : {
                        "POSITION" : 0,
                        "NORMAL" : 1,
                        "TEXCOORD_0" : 2
                    },
                    "indices" : 3,
                    "material" : 0
                }
            ]
        }
    ],
    "accessors" : [
        {
            "bufferView" : 0,
            "componentType" : 5126,
            "count" : 7817,
            "max" : [
                2.0490381717681885,
                4.738889217376709,
                1.9730033874511719
            ],
            "min" : [
                -2.0490381717681885,
                -0.0065267314203083515,
                -1.4881316423416138
            ],
            "type" : "VEC3"
        },
        {
            "bufferView" : 1,
            "componentType" : 5126,
            "count" : 7817,
            "type" : "VEC3"
        },
        {
            "bufferView" : 2,
            "componentType" : 5126,
            "count" : 7817,
            "type" : "VEC2"
        },
        {
            "bufferView" : 3,
            "componentType" : 5123,
            "count" : 12720,
            "type" : "SCALAR"
        }
    ],
    "bufferViews" : [
        {
            "buffer" : 0,
            "byteLength" : 93804,
            "byteOffset" : 0
        },
        {
            "buffer" : 0,
            "byteLength" : 93804,
            "byteOffset" : 93804
        },
        {
            "buffer" : 0,
            "byteLength" : 62536,
            "byteOffset" : 187608
        },
        {
            "buffer" : 0,
            "byteLength" : 25440,
            "byteOffset" : 250144
        }
    ],
    "buffers" : [
        {
            "byteLength" : 275584,
            "uri" : "data:application/octet-stream;base64,"
        }
    ]
}
