{
    "asset" : {
        "generator" : "Khronos glTF Blender I/O v1.4.40",
        "version" : "2.0"
    },
    "scene" : 0,
    "scenes" : [
        {
            "name" : "Scene",
            "nodes" : [
                0
            ]
        }
    ],
    "nodes" : [
        {
            "mesh" : 0,
            "name" : "House2"
        }
    ],
    "materials" : [
        {
            "doubleSided" : true,
            "name" : "Texture",
            "pbrMetallicRoughness" : {}
        }
    ],
    "meshes" : [
        {
            "name" : "Cube.035",
            "primitives" : [
                {
                    "attributes" : {
                        "POSITION" : 0,
                        "NORMAL" : 1,
                        "TEXCOORD_0" : 2
                    },
                    "indices" : 3,
                    "material" : 0
                }
            ]
        }
    ],
    "accessors" : [
        {
            "bufferView" : 0,
            "componentType" : 5126,
            "count" : 3752,
            "max" : [
                0.6205567121505737,
                1.3465057611465454,
                0.7101919054985046
            ],
            "min" : [
                -0.6343535780906677,
                0.0037460566964000463,
                -0.7326246500015259
            ],
            "type" : "VEC3"
        },
        {
            "bufferView" : 1,
            "componentType" : 5126,
            "count" : 3752,
            "type" : "VEC3"
        },
        {
            "bufferView" : 2,
            "componentType" : 5126,
            "count" : 3752,
            "type" : "VEC2"
        },
        {
            "bufferView" : 3,
            "componentType" : 5123,
            "count" : 6000,
            "type" : "SCALAR"
        }
    ],
    "bufferViews" : [
        {
            "buffer" : 0,
            "byteLength" : 45024,
            "byteOffset" : 0
        },
        {
            "buffer" : 0,
            "byteLength" : 45024,
            "byteOffset" : 45024
        },
        {
            "buffer" : 0,
            "byteLength" : 30016,
            "byteOffset" : 90048
        },
        {
            "buffer" : 0,
            "byteLength" : 12000,
            "byteOffset" : 120064
        }
    ],
    "buffers" : [
        {
            "byteLength" : 132064,
            "uri" : "data:application/octet-stream;base64,"
        }
    ]
}
