{
    "asset" : {
        "generator" : "Khronos glTF Blender I/O v1.4.40",
        "version" : "2.0"
    },
    "scene" : 0,
    "scenes" : [
        {
            "name" : "Scene",
            "nodes" : [
                0
            ]
        }
    ],
    "nodes" : [
        {
            "mesh" : 0,
            "name" : "Flat2"
        }
    ],
    "materials" : [
        {
            "doubleSided" : true,
            "name" : "Texture",
            "pbrMetallicRoughness" : {}
        }
    ],
    "meshes" : [
        {
            "name" : "Cube.013",
            "primitives" : [
                {
                    "attributes" : {
                        "POSITION" : 0,
                        "NORMAL" : 1,
                        "TEXCOORD_0" : 2
                    },
                    "indices" : 3,
                    "material" : 0
                }
            ]
        }
    ],
    "accessors" : [
        {
            "bufferView" : 0,
            "componentType" : 5126,
            "count" : 3849,
            "max" : [
                1.0841890573501587,
                3.1601483821868896,
                0.9459404349327087
            ],
            "min" : [
                -1.084192156791687,
                -0.0064571211114525795,
                -0.9459404349327087
            ],
            "type" : "VEC3"
        },
        {
            "bufferView" : 1,
            "componentType" : 5126,
            "count" : 3849,
            "type" : "VEC3"
        },
        {
            "bufferView" : 2,
            "componentType" : 5126,
            "count" : 3849,
            "type" : "VEC2"
        },
        {
            "bufferView" : 3,
            "componentType" : 5123,
            "count" : 6252,
            "type" : "SCALAR"
        }
    ],
    "bufferViews" : [
        {
            "buffer" : 0,
            "byteLength" : 46188,
            "byteOffset" : 0
        },
        {
            "buffer" : 0,
            "byteLength" : 46188,
            "byteOffset" : 46188
        },
        {
            "buffer" : 0,
            "byteLength" : 30792,
            "byteOffset" : 92376
        },
        {
            "buffer" : 0,
            "byteLength" : 12504,
            "byteOffset" : 123168
        }
    ],
    "buffers" : [
        {
            "byteLength" : 135672,
            "uri" : "data:application/octet-stream;base64,"
        }
    ]
}
