{
    "asset" : {
        "generator" : "Khronos glTF Blender I/O v1.4.40",
        "version" : "2.0"
    },
    "scene" : 0,
    "scenes" : [
        {
            "name" : "Scene",
            "nodes" : [
                0
            ]
        }
    ],
    "nodes" : [
        {
            "mesh" : 0,
            "name" : "Flat1"
        }
    ],
    "materials" : [
        {
            "doubleSided" : true,
            "name" : "Texture",
            "pbrMetallicRoughness" : {}
        }
    ],
    "meshes" : [
        {
            "name" : "Cube",
            "primitives" : [
                {
                    "attributes" : {
                        "POSITION" : 0,
                        "NORMAL" : 1,
                        "TEXCOORD_0" : 2
                    },
                    "indices" : 3,
                    "material" : 0
                }
            ]
        }
    ],
    "accessors" : [
        {
            "bufferView" : 0,
            "componentType" : 5126,
            "count" : 3507,
            "max" : [
                1.0841915607452393,
                3.1643924713134766,
                1.197797417640686
            ],
            "min" : [
                -1.0841915607452393,
                -0.002672001952305436,
                -0.9459404349327087
            ],
            "type" : "VEC3"
        },
        {
            "bufferView" : 1,
            "componentType" : 5126,
            "count" : 3507,
            "type" : "VEC3"
        },
        {
            "bufferView" : 2,
            "componentType" : 5126,
            "count" : 3507,
            "type" : "VEC2"
        },
        {
            "bufferView" : 3,
            "componentType" : 5123,
            "count" : 6366,
            "type" : "SCALAR"
        }
    ],
    "bufferViews" : [
        {
            "buffer" : 0,
            "byteLength" : 42084,
            "byteOffset" : 0
        },
        {
            "buffer" : 0,
            "byteLength" : 42084,
            "byteOffset" : 42084
        },
        {
            "buffer" : 0,
            "byteLength" : 28056,
            "byteOffset" : 84168
        },
        {
            "buffer" : 0,
            "byteLength" : 12732,
            "byteOffset" : 112224
        }
    ],
    "buffers" : [
        {
            "byteLength" : 124956,
            "uri" : "data:application/octet-stream;base64,"
        }
    ]
}
