{
    "asset" : {
        "generator" : "Khronos glTF Blender I/O v1.4.40",
        "version" : "2.0"
    },
    "scene" : 0,
    "scenes" : [
        {
            "name" : "Scene",
            "nodes" : [
                0
            ]
        }
    ],
    "nodes" : [
        {
            "mesh" : 0,
            "name" : "House1"
        }
    ],
    "materials" : [
        {
            "doubleSided" : true,
            "name" : "Texture",
            "pbrMetallicRoughness" : {}
        }
    ],
    "meshes" : [
        {
            "name" : "Cube.011",
            "primitives" : [
                {
                    "attributes" : {
                        "POSITION" : 0,
                        "NORMAL" : 1,
                        "TEXCOORD_0" : 2
                    },
                    "indices" : 3,
                    "material" : 0
                }
            ]
        }
    ],
    "accessors" : [
        {
            "bufferView" : 0,
            "componentType" : 5126,
            "count" : 8199,
            "max" : [
                0.6111352443695068,
                1.4133739471435547,
                1.057547688484192
            ],
            "min" : [
                -0.6111352443695068,
                -0.0019034537253901362,
                -0.658461332321167
            ],
            "type" : "VEC3"
        },
        {
            "bufferView" : 1,
            "componentType" : 5126,
            "count" : 8199,
            "type" : "VEC3"
        },
        {
            "bufferView" : 2,
            "componentType" : 5126,
            "count" : 8199,
            "type" : "VEC2"
        },
        {
            "bufferView" : 3,
            "componentType" : 5123,
            "count" : 12846,
            "type" : "SCALAR"
        }
    ],
    "bufferViews" : [
        {
            "buffer" : 0,
            "byteLength" : 98388,
            "byteOffset" : 0
        },
        {
            "buffer" : 0,
            "byteLength" : 98388,
            "byteOffset" : 98388
        },
        {
            "buffer" : 0,
            "byteLength" : 65592,
            "byteOffset" : 196776
        },
        {
            "buffer" : 0,
            "byteLength" : 25692,
            "byteOffset" : 262368
        }
    ],
    "buffers" : [
        {
            "byteLength" : 288060,
            "uri" : "data:application/octet-stream;base64,"
        }
    ]
}
